# xmcd
#
# Track frame offsets:
#	150
#	4362
#	20803
#	37489
#	55384
#	71480
#	92406
#	108469
#	130072
#	135837
#	151136
#	167953
#	190031
#	208766
#	229131
#	276018
#
# Disc length: 4305 seconds
#
# Revision: 1
# Processed by: cddbd v1.4PL0 Copyright (c) Steve Scherf et al.
# Submitted via: EasyCDDAExtractor 5.1.0
#
DISCID=e010cf10
DTITLE=Ms. Dynamite - A Little Deeper
DYEAR=1900
DGENRE=R&B
TTITLE0=Natural High (interlude)
TTITLE1=Dy-Na-Mi-Tee
TTITLE2=Anyway U Want It (feat. keon bryce)
TTITLE3=Put Him Out
TTITLE4=Brother
TTITLE5=It Takes More (bloodshy main mix)
TTITLE6=Sick'N'Tired
TTITLE7=Afraid 2 Fly
TTITLE8=Watch Over Them
TTITLE9=Seed Will Grow (feat. kymani marley)
TTITLE10=Krazy Krush
TTITLE11=Now U Want My Love
TTITLE12=Too Experienced (feat. barrington levi)
TTITLE13=Gotta Let U Know
TTITLE14=All I Ever
TTITLE15=A Little Deeper
EXTD=
EXTT0=
EXTT1=
EXTT2=
EXTT3=
EXTT4=
EXTT5=
EXTT6=
EXTT7=
EXTT8=
EXTT9=
EXTT10=
EXTT11=
EXTT12=
EXTT13=
EXTT14=
EXTT15=
PLAYORDER=
